<svg xmlns="http://www.w3.org/2000/svg" viewBox="0 0 720 440" font-family="Inter, 'Helvetica Neue', Arial, sans-serif"><rect width="720" height="440" fill="#ffffff"/><rect x="245" y="56" width="330" height="50" fill="none" stroke="#1a1a1a" stroke-width="1.8" rx="9"/><text x="410" y="87" font-size="14" fill="#1a1a1a" font-weight="600" text-anchor="middle">1 · Cash-Secured Put verkaufen</text><rect x="245" y="146" width="330" height="50" fill="none" stroke="#1a1a1a" stroke-width="1.8" rx="9"/><text x="410" y="177" font-size="14" fill="#1a1a1a" font-weight="600" text-anchor="middle">2 · Aktien per Zuteilung kaufen</text><rect x="245" y="236" width="330" height="50" fill="none" stroke="#1a1a1a" stroke-width="1.8" rx="9"/><text x="410" y="267" font-size="14" fill="#1a1a1a" font-weight="600" text-anchor="middle">3 · Covered Call verkaufen</text><rect x="245" y="326" width="330" height="50" fill="none" stroke="#1a1a1a" stroke-width="1.8" rx="9"/><text x="410" y="357" font-size="14" fill="#1a1a1a" font-weight="600" text-anchor="middle">4 · Aktien werden abgerufen</text><line x1="410" y1="106" x2="410" y2="136" stroke="#1a1a1a" stroke-width="2.2"/><path d="M410,146 l-6,-11 h12 z" fill="#1a1a1a"/><line x1="410" y1="196" x2="410" y2="226" stroke="#1a1a1a" stroke-width="2.2"/><path d="M410,236 l-6,-11 h12 z" fill="#1a1a1a"/><line x1="410" y1="286" x2="410" y2="316" stroke="#1a1a1a" stroke-width="2.2"/><path d="M410,326 l-6,-11 h12 z" fill="#1a1a1a"/><path d="M245,351 C150,351 150,81 245,81" fill="none" stroke="#9aa0a6" stroke-width="2.4"/><path d="M245,81 l-12,-6 v12 z" fill="#9aa0a6"/><text transform="rotate(-90 126 216)" x="126" y="216" font-size="12.5" fill="#555" font-weight="400" text-anchor="middle">Zyklus wiederholt sich</text></svg>